HIERARCHY
ROOT Pelvis
{
	OFFSET -0.217368 -24.078917 2.858379
	CHANNELS 6 Xposition Yposition Zposition Zrotation Yrotation Xrotation 
	JOINT Left_hip
	{
		OFFSET 5.858135 -8.228005 -1.766408
		CHANNELS 3 Zrotation Yrotation Xrotation
		JOINT Left_knee
		{
			OFFSET 4.345143 -38.646942 0.803700
			CHANNELS 3 Zrotation Yrotation Xrotation
			JOINT Left_ankle
			{
				OFFSET -1.479033 -42.687447 -3.742800
				CHANNELS 3 Zrotation Yrotation Xrotation
				JOINT Left_foot
				{
					OFFSET 4.105436 -6.028605 12.204244
					CHANNELS 3 Zrotation Yrotation Xrotation
					End Site
					{
						OFFSET 0.000000 0.000000 0.000000
					}
				}
			}
		}
	}
	JOINT Right_hip
	{
		OFFSET -6.030973 -9.051328 -1.354253
		CHANNELS 3 Zrotation Yrotation Xrotation
		JOINT Right_knee
		{
			OFFSET -4.325663 -38.368790 -0.484304
			CHANNELS 3 Zrotation Yrotation Xrotation
			JOINT Right_ankle
			{
				OFFSET 1.905555 -42.004566 -3.456167
				CHANNELS 3 Zrotation Yrotation Xrotation
				JOINT Right_foot
				{
					OFFSET -3.483987 -6.210554 13.032330
					CHANNELS 3 Zrotation Yrotation Xrotation
					End Site
					{
						OFFSET 0.000000 0.000000 0.000000
					}
				}
			}
		}
	}
	JOINT Spine1
	{
		OFFSET 0.443945 12.440353 -3.838522
		CHANNELS 3 Zrotation Yrotation Xrotation
		JOINT Spine2
		{
			OFFSET 0.448844 13.795640 2.682033
			CHANNELS 3 Zrotation Yrotation Xrotation
			JOINT Spine3
			{
				OFFSET -0.226460 5.603239 0.285504
				CHANNELS 3 Zrotation Yrotation Xrotation
				JOINT Neck
				{
					OFFSET -1.339018 21.163553 -3.346758
					CHANNELS 3 Zrotation Yrotation Xrotation
					JOINT Head
					{
						OFFSET 1.011321 8.893734 5.040987
						CHANNELS 3 Zrotation Yrotation Xrotation
						End Site
						{
							OFFSET 0.000000 0.000000 0.000000
						}
					}
				}
				JOINT Left_collar
				{
					OFFSET 7.170247 11.399971 -1.889817
					CHANNELS 3 Zrotation Yrotation Xrotation
					JOINT Left_shoulder
					{
						OFFSET 12.292140 4.520507 -1.904600
						CHANNELS 3 Zrotation Yrotation Xrotation
						JOINT Left_elbow
						{
							OFFSET 25.533188 -1.564902 -2.294648
							CHANNELS 3 Zrotation Yrotation Xrotation
							JOINT Left_wrist
							{
								OFFSET 26.570929 1.269810 -0.737473
								CHANNELS 3 Zrotation Yrotation Xrotation
								JOINT Left_palm
								{
									OFFSET 8.669054 -1.063602 -1.559429
									CHANNELS 3 Zrotation Yrotation Xrotation
									End Site
									{
										OFFSET 0.000000 0.000000 0.000000
									}
								}
							}
						}
					}
				}
				JOINT Right_collar
				{
					OFFSET -8.295364 11.247234 -2.370738
					CHANNELS 3 Zrotation Yrotation Xrotation
					JOINT Right_shoulder
					{
						OFFSET -11.322830 4.685326 -0.847207
						CHANNELS 3 Zrotation Yrotation Xrotation
						JOINT Right_elbow
						{
							OFFSET -26.012751 -1.436928 -3.126872
							CHANNELS 3 Zrotation Yrotation Xrotation
							JOINT Right_wrist
							{
								OFFSET -26.910841 0.679372 -0.602677
								CHANNELS 3 Zrotation Yrotation Xrotation
								JOINT Right_palm
								{
									OFFSET -8.875370 -0.865157 -1.010708
									CHANNELS 3 Zrotation Yrotation Xrotation
									End Site
									{
										OFFSET 0.000000 0.000000 0.000000
									}
								}
							}
						}
					}
				}
			}
		}
	}
}
MOTION
Frames: 5
Frame Time: 0.016667
-0.035804 72.038170 2.167172 0.052902 -5.417295 -1.437936 3.339061 0.302908 5.513561 -2.900044 0.347213 -3.403610 2.418763 8.280917 10.754831 0.000000 0.000000 0.000000 -4.362958 -0.082367 2.969259 1.989533 -0.227474 -0.741300 0.335330 -4.158656 11.410823 0.000000 0.000000 0.000000 6.170031 -0.234673 1.944039 -3.469411 1.494139 -20.631369 -3.001744 10.054432 22.433862 10.851612 -6.556230 -9.409879 0.000000 0.000000 0.000000 9.255491 -18.940455 5.700135 6.736120 -47.915526 -5.041682 68.459611 -27.377791 -17.075940 0.000000 0.000000 0.000000 0.000000 0.000000 0.000000 6.672152 8.006843 2.626708 6.458184 51.944097 -0.335172 -76.916101 43.926340 -31.936465 0.000000 0.000000 0.000000 0.000000 0.000000 0.000000 
-0.025829 72.054131 2.155444 0.121480 -5.314171 -1.593990 3.162126 0.319448 5.605420 -2.809681 0.340971 -3.506980 2.457658 8.430625 11.105679 0.000000 0.000000 0.000000 -4.406580 -0.093277 3.181547 1.887030 -0.221075 -0.906955 0.402064 -4.081851 11.560741 0.000000 0.000000 0.000000 6.275471 -0.228251 1.849105 -3.561091 1.520335 -20.504975 -3.298346 10.062927 22.460682 10.953465 -6.476359 -10.120457 0.000000 0.000000 0.000000 9.555228 -19.550487 5.833390 6.725414 -47.501015 -4.979179 66.753255 -26.871636 -16.204204 0.000000 0.000000 0.000000 0.000000 0.000000 0.000000 6.681591 8.317140 2.754689 6.413310 51.369166 -0.356493 -75.120763 42.443084 -29.780268 0.000000 0.000000 0.000000 0.000000 0.000000 0.000000 
-0.016951 72.047546 2.152086 0.222351 -5.059220 -1.589239 3.003952 0.327535 5.581168 -2.844445 0.344327 -3.575650 2.250348 8.090519 11.105356 0.000000 0.000000 0.000000 -4.386456 -0.098941 3.256727 1.744187 -0.209827 -1.020970 0.481177 -3.848923 11.339038 0.000000 0.000000 0.000000 6.216675 -0.192423 1.488035 -3.662154 1.548437 -20.472737 -3.437820 9.843886 22.694017 10.766050 -6.326416 -10.240820 0.000000 0.000000 0.000000 9.752875 -19.737845 5.863907 7.139493 -47.319971 -5.099538 65.470118 -25.767727 -15.123621 0.000000 0.000000 0.000000 0.000000 0.000000 0.000000 6.797902 8.232989 2.718156 6.365212 51.021211 -0.377674 -73.992547 41.006497 -28.082757 0.000000 0.000000 0.000000 0.000000 0.000000 0.000000 
-0.007684 72.047050 2.150572 0.148334 -4.775304 -1.616402 3.018924 0.314020 5.387662 -2.810916 0.338460 -3.225903 2.223738 8.012146 10.967094 0.000000 0.000000 0.000000 -4.056566 -0.115866 3.254720 1.445080 -0.173530 -0.750485 0.415334 -3.914366 11.162825 0.000000 0.000000 0.000000 5.993965 -0.182758 1.435272 -3.559347 1.519315 -20.567652 -3.571271 9.483224 22.952487 10.480050 -6.030267 -10.764992 0.000000 0.000000 0.000000 9.809619 -19.364498 5.762281 7.672371 -47.684745 -5.342915 64.646418 -25.110295 -14.482075 0.000000 0.000000 0.000000 0.000000 0.000000 0.000000 6.795072 8.127145 2.674362 6.109791 50.436701 -0.482713 -73.661081 40.167473 -27.275530 0.000000 0.000000 0.000000 0.000000 0.000000 0.000000 
-0.002375 72.064079 2.147654 0.032578 -4.513688 -1.671111 3.063390 0.306794 5.316715 -2.635492 0.323746 -3.183666 2.299348 8.170488 11.103515 0.000000 0.000000 0.000000 -3.925599 -0.123247 3.264013 1.561793 -0.184742 -0.735145 0.208662 -4.405147 11.411269 0.000000 0.000000 0.000000 5.744633 -0.168866 1.339758 -3.276050 1.442674 -20.382878 -3.672218 9.179288 22.828413 10.222944 -5.828805 -10.927281 0.000000 0.000000 0.000000 9.512405 -18.947745 5.680176 7.880703 -47.933019 -5.455754 63.996792 -25.064551 -14.268494 0.000000 0.000000 0.000000 0.000000 0.000000 0.000000 6.672707 8.056600 2.647235 5.558605 50.100556 -0.702856 -72.452078 39.176915 -25.948676 0.000000 0.000000 0.000000 0.000000 0.000000 0.000000 
